<svg width="32" height="32" viewBox="0 0 39 29" fill="none" xmlns="http://www.w3.org/2000/svg">
  <path d="M37.5328 1.58904C36.6065 0.686177 35.3883 0.187796 34.0899 0.187796C32.7915 0.187796 31.5296 0.700623 30.6033 1.63238L29.159 3.08418C26.1902 1.06899 22.8567 0 19.4941 0C16.1314 0 12.7979 1.06899 9.82913 3.09141L8.38486 1.6396C7.4512 0.707846 6.21117 0.195019 4.8909 0.195019C3.57064 0.195019 2.37437 0.6934 1.45529 1.58904C-0.470398 3.467 -0.484986 6.55118 1.41153 8.45081L3.3664 10.4154C2.22849 12.6545 1.63765 14.9731 1.63765 17.1472C1.63765 24.4568 8.47969 29 19.5014 29C30.523 29 37.3651 24.4568 37.3651 17.1472C37.3651 14.9731 36.7669 12.6473 35.6363 10.4154L37.5912 8.45081C39.4877 6.54396 39.4658 3.467 37.5474 1.58904H37.5328Z" fill="black" />
</svg>
