<svg width="134" height="91" viewBox="0 0 134 91" fill="none" xmlns="http://www.w3.org/2000/svg">
<path d="M129.013 5.01918C125.836 2.18225 121.657 0.623501 117.202 0.623501C112.747 0.623501 108.43 2.21343 105.218 5.14388L100.245 9.69544C90.057 3.33573 78.5911 0 67.0216 0C55.4521 0 43.9862 3.36691 33.7981 9.69544L28.8249 5.14388C25.6131 2.2446 21.3306 0.623501 16.8064 0.623501C12.2822 0.623501 8.17247 2.21343 4.99517 5.01918C-1.60118 10.9113 -1.67025 20.5755 4.82249 26.5612L11.557 32.7026C7.65443 39.717 5.58228 47.012 5.58228 53.8393C5.58228 76.753 29.1012 91 66.987 91C104.873 91 128.392 76.753 128.392 53.8393C128.392 47.012 126.32 39.7482 122.417 32.7026L129.152 26.53C135.679 20.5444 135.61 10.8801 128.979 4.98801L129.013 5.01918Z" fill="#431F13"/>
<path d="M90.9676 53.6726C88.3698 51.3936 85.2677 49.7783 81.9436 48.9624C85.6739 45.7172 88.4451 41.4872 89.9618 36.7253C90.2898 35.6937 90.081 34.5889 89.4022 33.7671C88.7235 32.9463 87.6939 32.551 86.6453 32.7111C81.7863 33.4557 77.2333 35.5668 73.4782 38.8179C73.4143 38.8735 73.3514 38.9282 73.2875 38.9848C73.4868 37.6359 73.5869 36.2783 73.5869 34.9207C73.5869 29.8084 72.1969 24.8123 69.5668 20.4701C69.0091 19.5488 68.0501 19.0002 67.0005 19.0002C65.9509 19.0002 64.9918 19.5488 64.4342 20.4701C61.804 24.8113 60.4131 29.8084 60.4131 34.9207C60.4131 36.2774 60.5132 37.6359 60.7124 38.9848C60.6495 38.9282 60.5857 38.8735 60.5218 38.8179C56.7677 35.5668 52.2147 33.4557 47.3547 32.7111C46.307 32.5549 45.2765 32.9453 44.5977 33.7671C43.919 34.5889 43.7102 35.6947 44.0381 36.7244C45.5539 41.4872 48.3261 45.7172 52.0564 48.9624C48.7313 49.7783 45.6302 51.3936 43.0324 53.6726C42.2183 54.386 41.8532 55.4625 42.0533 56.5527C42.2535 57.6419 42.9771 58.5086 43.9876 58.8698C47.5473 60.1434 51.392 60.4362 55.107 59.7208C55.8477 59.5783 56.5827 59.3948 57.3072 59.1723C56.842 60.0683 56.4712 61.0218 56.1976 62.0261C55.8954 63.1368 56.189 64.2787 56.9821 65.079C57.7686 65.8725 58.8792 66.1556 59.946 65.8345C62.2101 65.1542 64.1787 63.9527 65.7983 62.2643C65.8832 62.1755 65.9623 62.0788 66.0443 61.9871V64.432C66.0443 66.7402 64.8164 68.8649 62.8402 69.9756L60.7172 71.1683C60.2558 71.4279 60.0861 72.0213 60.3397 72.4927C60.5132 72.8168 60.8392 73.0002 61.1767 73.0002C61.3321 73.0002 61.4884 72.9622 61.6343 72.8802L63.7573 71.6875C66.3465 70.2343 67.9538 67.4537 67.9538 64.4329V61.9881C68.0367 62.0798 68.1158 62.1774 68.2007 62.2652C69.8203 63.9527 71.7889 65.1542 74.053 65.8345C74.3438 65.9213 74.6365 65.9643 74.9263 65.9643C75.7003 65.9643 76.4439 65.6578 77.0169 65.079C77.81 64.2787 78.1036 63.1368 77.8014 62.0261C77.5288 61.0218 77.158 60.0683 76.6918 59.1723C77.4163 59.3958 78.1504 59.5783 78.892 59.7208C82.6052 60.4362 86.4499 60.1434 90.0105 58.8698C91.0219 58.5086 91.7455 57.6419 91.9457 56.5527C92.1459 55.4625 91.7807 54.387 90.9676 53.6726Z" fill="#FAF0E3"/>
</svg>
