<svg width="56" height="42" viewBox="0 0 56 42" fill="none" xmlns="http://www.w3.org/2000/svg">
<path d="M48.8309 0.28777C50.6871 0.28777 52.4282 1.00719 53.752 2.31655L53.7376 2.30216C56.5003 5.02158 56.5291 9.48201 53.8095 12.2446L51.0037 15.0935C52.6296 18.3453 53.493 21.6978 53.493 24.8489C53.493 35.4245 43.6941 42 27.9094 42C12.1247 42 2.32579 35.4245 2.32579 24.8489C2.32579 21.6978 3.18913 18.3309 4.81508 15.0935L2.00923 12.259C-0.695892 9.4964 -0.667114 5.03597 2.08118 2.31655C3.40496 1.02158 5.11725 0.28777 7.00221 0.28777C8.88716 0.28777 10.6714 1.03597 12.0096 2.3741L14.0816 4.47482C18.3263 1.55396 23.1035 0 27.9238 0C32.7441 0 37.5212 1.53957 41.766 4.47482L43.838 2.3741C45.1761 1.02158 46.9748 0.28777 48.8309 0.28777Z" fill="black"/>
</svg>
